<mxfile host="app.diagrams.net" modified="2024-06-17T08:45:58.783Z" agent="Mozilla/5.0 (Macintosh; Intel Mac OS X 10_15_7) AppleWebKit/537.36 (KHTML, like Gecko) Chrome/126.0.0.0 Safari/537.36 Edg/126.0.0.0" etag="QL9F-5inSPpspp-S7dT9" version="24.5.4" type="device">
  <diagram name="第 1 页" id="HJdR2ewPqc4SO0az2n2Y">
    <mxGraphModel dx="965" dy="-3583" grid="1" gridSize="10" guides="1" tooltips="1" connect="1" arrows="1" fold="1" page="1" pageScale="1" pageWidth="1169" pageHeight="827" background="#ffffff" math="0" shadow="1">
      <root>
        <mxCell id="0" />
        <mxCell id="1" parent="0" />
        <mxCell id="B-JMvFTmKCqjfrojI3Oj-154" value="" style="rounded=0;whiteSpace=wrap;html=1;strokeWidth=2;container=0;shadow=1;" parent="1" vertex="1">
          <mxGeometry x="40" y="4530" width="540" height="150" as="geometry" />
        </mxCell>
        <mxCell id="B-JMvFTmKCqjfrojI3Oj-155" value="&lt;font face=&quot;Times New Roman&quot;&gt;&lt;b&gt;Client&lt;/b&gt;&lt;/font&gt;" style="text;html=1;align=center;verticalAlign=middle;resizable=0;points=[];autosize=1;strokeColor=none;fillColor=none;" parent="1" vertex="1">
          <mxGeometry x="515" y="4540.25" width="50" height="30" as="geometry" />
        </mxCell>
        <mxCell id="B-JMvFTmKCqjfrojI3Oj-156" value="" style="rounded=0;whiteSpace=wrap;html=1;strokeWidth=2;container=0;shadow=1;" parent="1" vertex="1">
          <mxGeometry x="40" y="4690" width="540" height="130" as="geometry" />
        </mxCell>
        <mxCell id="B-JMvFTmKCqjfrojI3Oj-157" value="&lt;font face=&quot;Times New Roman&quot;&gt;&lt;b&gt;Server/&lt;font color=&quot;#ff2c14&quot;&gt;Kernel&lt;/font&gt;&lt;/b&gt;&lt;/font&gt;" style="text;html=1;align=center;verticalAlign=middle;resizable=0;points=[];autosize=1;strokeColor=none;fillColor=none;" parent="1" vertex="1">
          <mxGeometry x="484" y="4690" width="100" height="30" as="geometry" />
        </mxCell>
        <mxCell id="B-JMvFTmKCqjfrojI3Oj-160" value="&lt;font face=&quot;Times New Roman&quot;&gt;async fn ipc_call()&lt;/font&gt;" style="rounded=1;whiteSpace=wrap;html=1;" parent="1" vertex="1">
          <mxGeometry x="258.57" y="4550" width="120" height="30" as="geometry" />
        </mxCell>
        <mxCell id="B-JMvFTmKCqjfrojI3Oj-161" value="" style="rounded=1;whiteSpace=wrap;html=1;" parent="1" vertex="1">
          <mxGeometry x="59.999999999999986" y="4550" width="150" height="70" as="geometry" />
        </mxCell>
        <mxCell id="B-JMvFTmKCqjfrojI3Oj-162" value="&lt;font face=&quot;Times New Roman&quot;&gt;async fn reply_recv(buf)&lt;/font&gt;" style="rounded=1;whiteSpace=wrap;html=1;" parent="1" vertex="1">
          <mxGeometry x="258.57" y="4587.5" width="120" height="35" as="geometry" />
        </mxCell>
        <mxCell id="B-JMvFTmKCqjfrojI3Oj-189" value="&lt;font face=&quot;Times New Roman&quot;&gt;Async Runtime&lt;/font&gt;" style="text;html=1;align=center;verticalAlign=middle;resizable=0;points=[];autosize=1;strokeColor=none;fillColor=none;" parent="1" vertex="1">
          <mxGeometry x="59.99999999999997" y="4550" width="100" height="30" as="geometry" />
        </mxCell>
        <mxCell id="B-JMvFTmKCqjfrojI3Oj-190" value="&lt;font face=&quot;Times New Roman&quot;&gt;uintr_handler()&lt;/font&gt;" style="rounded=1;whiteSpace=wrap;html=1;" parent="1" vertex="1">
          <mxGeometry x="450.79" y="4590.25" width="94.21" height="30" as="geometry" />
        </mxCell>
        <mxCell id="B-JMvFTmKCqjfrojI3Oj-192" value="&lt;div&gt;&lt;font face=&quot;Times New Roman&quot;&gt;uintr_handler()/&lt;/font&gt;&lt;/div&gt;&lt;div&gt;&lt;span style=&quot;font-family: &amp;quot;Times New Roman&amp;quot;;&quot;&gt;&lt;font color=&quot;#ff2c14&quot;&gt;syscall handler()&lt;/font&gt;&lt;/span&gt;&lt;font face=&quot;Times New Roman&quot;&gt;&lt;br&gt;&lt;/font&gt;&lt;/div&gt;" style="rounded=1;whiteSpace=wrap;html=1;" parent="1" vertex="1">
          <mxGeometry x="69.45" y="4730" width="94.21" height="35" as="geometry" />
        </mxCell>
        <mxCell id="B-JMvFTmKCqjfrojI3Oj-193" value="" style="endArrow=classic;html=1;rounded=0;exitX=0.377;exitY=1.005;exitDx=0;exitDy=0;exitPerimeter=0;entryX=0.5;entryY=0;entryDx=0;entryDy=0;" parent="1" source="B-JMvFTmKCqjfrojI3Oj-161" target="B-JMvFTmKCqjfrojI3Oj-192" edge="1">
          <mxGeometry width="50" height="50" relative="1" as="geometry">
            <mxPoint x="330" y="4750" as="sourcePoint" />
            <mxPoint x="147" y="4730" as="targetPoint" />
          </mxGeometry>
        </mxCell>
        <mxCell id="B-JMvFTmKCqjfrojI3Oj-194" value="&lt;font face=&quot;Times New Roman&quot;&gt;U-notificaiton/&lt;font color=&quot;#ff2c14&quot;&gt;syscall&lt;/font&gt;&lt;/font&gt;" style="edgeLabel;html=1;align=center;verticalAlign=middle;resizable=0;points=[];" parent="B-JMvFTmKCqjfrojI3Oj-193" vertex="1" connectable="0">
          <mxGeometry x="-0.468" y="-1" relative="1" as="geometry">
            <mxPoint as="offset" />
          </mxGeometry>
        </mxCell>
        <mxCell id="B-JMvFTmKCqjfrojI3Oj-196" value="&lt;font face=&quot;Times New Roman&quot;&gt;async fn req_recv(buf)&lt;/font&gt;" style="rounded=1;whiteSpace=wrap;html=1;" parent="1" vertex="1">
          <mxGeometry x="220.00000000000003" y="4767.5" width="120" height="30" as="geometry" />
        </mxCell>
        <mxCell id="B-JMvFTmKCqjfrojI3Oj-198" value="&lt;font face=&quot;Times New Roman&quot;&gt;syscall lib&lt;/font&gt;" style="shape=note;whiteSpace=wrap;html=1;backgroundOutline=1;darkOpacity=0.05;size=14;" parent="1" vertex="1">
          <mxGeometry x="69.44999999999999" y="4580" width="80" height="40" as="geometry" />
        </mxCell>
        <mxCell id="B-JMvFTmKCqjfrojI3Oj-204" value="" style="rounded=0;whiteSpace=wrap;html=1;" parent="1" vertex="1">
          <mxGeometry x="149.45" y="4580" width="50" height="10" as="geometry" />
        </mxCell>
        <mxCell id="B-JMvFTmKCqjfrojI3Oj-205" value="" style="rounded=0;whiteSpace=wrap;html=1;" parent="1" vertex="1">
          <mxGeometry x="149.45" y="4590" width="50" height="10" as="geometry" />
        </mxCell>
        <mxCell id="B-JMvFTmKCqjfrojI3Oj-206" value="" style="rounded=0;whiteSpace=wrap;html=1;" parent="1" vertex="1">
          <mxGeometry x="149.45" y="4600" width="50" height="10" as="geometry" />
        </mxCell>
        <mxCell id="B-JMvFTmKCqjfrojI3Oj-207" value="" style="rounded=0;whiteSpace=wrap;html=1;" parent="1" vertex="1">
          <mxGeometry x="149.45" y="4610" width="50" height="10" as="geometry" />
        </mxCell>
        <mxCell id="B-JMvFTmKCqjfrojI3Oj-208" value="&lt;font style=&quot;font-size: 10px;&quot; face=&quot;Times New Roman&quot;&gt;Task Queue&lt;/font&gt;" style="text;html=1;align=center;verticalAlign=middle;resizable=0;points=[];autosize=1;strokeColor=none;fillColor=none;" parent="1" vertex="1">
          <mxGeometry x="140" y="4555" width="70" height="30" as="geometry" />
        </mxCell>
        <mxCell id="B-JMvFTmKCqjfrojI3Oj-209" value="" style="rounded=1;whiteSpace=wrap;html=1;" parent="1" vertex="1">
          <mxGeometry x="410" y="4740" width="150" height="70" as="geometry" />
        </mxCell>
        <mxCell id="B-JMvFTmKCqjfrojI3Oj-210" value="&lt;font face=&quot;Times New Roman&quot;&gt;Async Runtime&lt;/font&gt;" style="text;html=1;align=center;verticalAlign=middle;resizable=0;points=[];autosize=1;strokeColor=none;fillColor=none;" parent="1" vertex="1">
          <mxGeometry x="399.45" y="4740" width="100" height="30" as="geometry" />
        </mxCell>
        <mxCell id="B-JMvFTmKCqjfrojI3Oj-211" value="&lt;font face=&quot;Times New Roman&quot;&gt;syscall lib/&lt;/font&gt;&lt;div&gt;&lt;font color=&quot;#ff2c14&quot; face=&quot;Times New Roman&quot;&gt;handle code&lt;/font&gt;&lt;/div&gt;" style="shape=note;whiteSpace=wrap;html=1;backgroundOutline=1;darkOpacity=0.05;size=14;" parent="1" vertex="1">
          <mxGeometry x="469.45" y="4770" width="80" height="40" as="geometry" />
        </mxCell>
        <mxCell id="B-JMvFTmKCqjfrojI3Oj-212" value="" style="rounded=0;whiteSpace=wrap;html=1;" parent="1" vertex="1">
          <mxGeometry x="419.45" y="4770" width="50" height="10" as="geometry" />
        </mxCell>
        <mxCell id="B-JMvFTmKCqjfrojI3Oj-213" value="" style="rounded=0;whiteSpace=wrap;html=1;" parent="1" vertex="1">
          <mxGeometry x="419.45" y="4780" width="50" height="10" as="geometry" />
        </mxCell>
        <mxCell id="B-JMvFTmKCqjfrojI3Oj-214" value="" style="rounded=0;whiteSpace=wrap;html=1;" parent="1" vertex="1">
          <mxGeometry x="419.45" y="4790" width="50" height="10" as="geometry" />
        </mxCell>
        <mxCell id="B-JMvFTmKCqjfrojI3Oj-215" value="" style="rounded=0;whiteSpace=wrap;html=1;" parent="1" vertex="1">
          <mxGeometry x="419.45" y="4800" width="50" height="10" as="geometry" />
        </mxCell>
        <mxCell id="B-JMvFTmKCqjfrojI3Oj-217" value="" style="endArrow=classic;html=1;rounded=0;exitX=0.994;exitY=-0.043;exitDx=0;exitDy=0;exitPerimeter=0;entryX=0.5;entryY=1;entryDx=0;entryDy=0;" parent="1" source="B-JMvFTmKCqjfrojI3Oj-210" target="B-JMvFTmKCqjfrojI3Oj-190" edge="1">
          <mxGeometry width="50" height="50" relative="1" as="geometry">
            <mxPoint x="330" y="4700" as="sourcePoint" />
            <mxPoint x="380" y="4650" as="targetPoint" />
          </mxGeometry>
        </mxCell>
        <mxCell id="B-JMvFTmKCqjfrojI3Oj-218" value="&lt;font face=&quot;Times New Roman&quot;&gt;U-notification&lt;/font&gt;" style="edgeLabel;html=1;align=center;verticalAlign=middle;resizable=0;points=[];" parent="B-JMvFTmKCqjfrojI3Oj-217" vertex="1" connectable="0">
          <mxGeometry x="0.3729" relative="1" as="geometry">
            <mxPoint as="offset" />
          </mxGeometry>
        </mxCell>
        <mxCell id="B-JMvFTmKCqjfrojI3Oj-220" value="&lt;font color=&quot;#ff2c14&quot; face=&quot;Times New Roman&quot;&gt;kernel scheduler&lt;/font&gt;" style="rounded=1;whiteSpace=wrap;html=1;strokeColor=#FF2C14;" parent="1" vertex="1">
          <mxGeometry x="70" y="4770" width="94.45" height="27.5" as="geometry" />
        </mxCell>
        <mxCell id="B-JMvFTmKCqjfrojI3Oj-221" value="" style="endArrow=none;dashed=1;html=1;dashPattern=1 3;strokeWidth=2;rounded=0;entryX=0;entryY=0.5;entryDx=0;entryDy=0;" parent="1" target="B-JMvFTmKCqjfrojI3Oj-160" edge="1">
          <mxGeometry width="50" height="50" relative="1" as="geometry">
            <mxPoint x="198.57" y="4590" as="sourcePoint" />
            <mxPoint x="378.57" y="4630" as="targetPoint" />
          </mxGeometry>
        </mxCell>
        <mxCell id="B-JMvFTmKCqjfrojI3Oj-222" value="" style="endArrow=none;dashed=1;html=1;dashPattern=1 3;strokeWidth=2;rounded=0;exitX=0.664;exitY=-0.089;exitDx=0;exitDy=0;exitPerimeter=0;" parent="1" source="B-JMvFTmKCqjfrojI3Oj-206" edge="1">
          <mxGeometry width="50" height="50" relative="1" as="geometry">
            <mxPoint x="328.57" y="4680" as="sourcePoint" />
            <mxPoint x="258.57" y="4610" as="targetPoint" />
          </mxGeometry>
        </mxCell>
        <mxCell id="B-JMvFTmKCqjfrojI3Oj-223" value="" style="endArrow=none;dashed=1;html=1;dashPattern=1 3;strokeWidth=2;rounded=0;exitX=1;exitY=0.5;exitDx=0;exitDy=0;entryX=0;entryY=0.75;entryDx=0;entryDy=0;" parent="1" source="B-JMvFTmKCqjfrojI3Oj-196" target="B-JMvFTmKCqjfrojI3Oj-212" edge="1">
          <mxGeometry width="50" height="50" relative="1" as="geometry">
            <mxPoint x="359.45" y="4777.5" as="sourcePoint" />
            <mxPoint x="399.45" y="4677.5" as="targetPoint" />
          </mxGeometry>
        </mxCell>
        <mxCell id="B-JMvFTmKCqjfrojI3Oj-226" value="" style="endArrow=classic;html=1;rounded=0;exitX=0;exitY=0.5;exitDx=0;exitDy=0;entryX=1;entryY=0.5;entryDx=0;entryDy=0;" parent="1" source="B-JMvFTmKCqjfrojI3Oj-190" target="B-JMvFTmKCqjfrojI3Oj-162" edge="1">
          <mxGeometry width="50" height="50" relative="1" as="geometry">
            <mxPoint x="328.57" y="4680" as="sourcePoint" />
            <mxPoint x="378.57" y="4630" as="targetPoint" />
          </mxGeometry>
        </mxCell>
        <mxCell id="B-JMvFTmKCqjfrojI3Oj-229" value="&lt;font face=&quot;Times New Roman&quot;&gt;wake&lt;/font&gt;" style="edgeLabel;html=1;align=center;verticalAlign=middle;resizable=0;points=[];" parent="B-JMvFTmKCqjfrojI3Oj-226" vertex="1" connectable="0">
          <mxGeometry x="0.0192" y="-2" relative="1" as="geometry">
            <mxPoint as="offset" />
          </mxGeometry>
        </mxCell>
        <mxCell id="B-JMvFTmKCqjfrojI3Oj-230" value="" style="endArrow=classic;html=1;rounded=0;exitX=1;exitY=0.5;exitDx=0;exitDy=0;entryX=0;entryY=0.5;entryDx=0;entryDy=0;" parent="1" source="B-JMvFTmKCqjfrojI3Oj-192" target="B-JMvFTmKCqjfrojI3Oj-196" edge="1">
          <mxGeometry width="50" height="50" relative="1" as="geometry">
            <mxPoint x="330" y="4732.5" as="sourcePoint" />
            <mxPoint x="380" y="4682.5" as="targetPoint" />
            <Array as="points">
              <mxPoint x="200" y="4748" />
              <mxPoint x="200" y="4782.5" />
            </Array>
          </mxGeometry>
        </mxCell>
        <mxCell id="B-JMvFTmKCqjfrojI3Oj-231" value="&lt;font face=&quot;Times New Roman&quot;&gt;wake&lt;/font&gt;" style="edgeLabel;html=1;align=center;verticalAlign=middle;resizable=0;points=[];" parent="B-JMvFTmKCqjfrojI3Oj-230" vertex="1" connectable="0">
          <mxGeometry x="-0.2684" relative="1" as="geometry">
            <mxPoint as="offset" />
          </mxGeometry>
        </mxCell>
        <mxCell id="B-JMvFTmKCqjfrojI3Oj-232" value="" style="endArrow=classic;html=1;rounded=0;exitX=1;exitY=0.25;exitDx=0;exitDy=0;entryX=1;entryY=0.5;entryDx=0;entryDy=0;" parent="1" source="B-JMvFTmKCqjfrojI3Oj-162" target="B-JMvFTmKCqjfrojI3Oj-160" edge="1">
          <mxGeometry width="50" height="50" relative="1" as="geometry">
            <mxPoint x="328.57" y="4680" as="sourcePoint" />
            <mxPoint x="378.57" y="4630" as="targetPoint" />
            <Array as="points">
              <mxPoint x="398.57" y="4596" />
              <mxPoint x="398.57" y="4565" />
            </Array>
          </mxGeometry>
        </mxCell>
        <mxCell id="B-JMvFTmKCqjfrojI3Oj-233" value="&lt;font face=&quot;Times New Roman&quot;&gt;wake&lt;/font&gt;" style="edgeLabel;html=1;align=center;verticalAlign=middle;resizable=0;points=[];" parent="B-JMvFTmKCqjfrojI3Oj-232" vertex="1" connectable="0">
          <mxGeometry x="0.0992" relative="1" as="geometry">
            <mxPoint x="16" as="offset" />
          </mxGeometry>
        </mxCell>
        <mxCell id="uf0-_T7T-mCnK8aiK6UU-66" value="" style="rounded=0;whiteSpace=wrap;html=1;" vertex="1" parent="1">
          <mxGeometry x="177.50000000000003" y="4632.5" width="265" height="110" as="geometry" />
        </mxCell>
        <mxCell id="uf0-_T7T-mCnK8aiK6UU-67" value="" style="rounded=0;whiteSpace=wrap;html=1;" vertex="1" parent="1">
          <mxGeometry x="182.50000000000003" y="4672.5" width="120" height="60" as="geometry" />
        </mxCell>
        <mxCell id="uf0-_T7T-mCnK8aiK6UU-68" value="&lt;font face=&quot;Times New Roman&quot; style=&quot;font-size: 8px;&quot;&gt;req_co status&lt;/font&gt;" style="rounded=0;whiteSpace=wrap;html=1;" vertex="1" parent="1">
          <mxGeometry x="182.50000000000003" y="4652.5" width="50" height="20" as="geometry" />
        </mxCell>
        <mxCell id="uf0-_T7T-mCnK8aiK6UU-69" value="&lt;span style=&quot;font-family: &amp;quot;Times New Roman&amp;quot;;&quot;&gt;&lt;font style=&quot;font-size: 8px;&quot;&gt;count&lt;/font&gt;&lt;/span&gt;" style="rounded=0;whiteSpace=wrap;html=1;" vertex="1" parent="1">
          <mxGeometry x="232.50000000000003" y="4652.5" width="30" height="20" as="geometry" />
        </mxCell>
        <mxCell id="uf0-_T7T-mCnK8aiK6UU-70" value="&lt;span style=&quot;font-family: &amp;quot;Times New Roman&amp;quot;;&quot;&gt;&lt;font style=&quot;font-size: 8px;&quot;&gt;start&lt;/font&gt;&lt;/span&gt;" style="rounded=0;whiteSpace=wrap;html=1;" vertex="1" parent="1">
          <mxGeometry x="262.5" y="4652.5" width="20" height="20" as="geometry" />
        </mxCell>
        <mxCell id="uf0-_T7T-mCnK8aiK6UU-71" value="&lt;font face=&quot;Times New Roman&quot; style=&quot;font-size: 8px;&quot;&gt;end&lt;/font&gt;" style="rounded=0;whiteSpace=wrap;html=1;" vertex="1" parent="1">
          <mxGeometry x="282.5" y="4652.5" width="20" height="20" as="geometry" />
        </mxCell>
        <mxCell id="uf0-_T7T-mCnK8aiK6UU-72" value="&lt;font face=&quot;Times New Roman&quot; style=&quot;font-size: 8px;&quot;&gt;cid&lt;/font&gt;" style="rounded=0;whiteSpace=wrap;html=1;" vertex="1" parent="1">
          <mxGeometry x="182.50000000000003" y="4692.5" width="20" height="20" as="geometry" />
        </mxCell>
        <mxCell id="uf0-_T7T-mCnK8aiK6UU-73" value="&lt;font face=&quot;Times New Roman&quot; style=&quot;font-size: 8px;&quot;&gt;msg info&lt;/font&gt;" style="rounded=0;whiteSpace=wrap;html=1;" vertex="1" parent="1">
          <mxGeometry x="202.50000000000003" y="4692.5" width="40" height="20" as="geometry" />
        </mxCell>
        <mxCell id="uf0-_T7T-mCnK8aiK6UU-74" value="&lt;font style=&quot;font-size: 8px;&quot; face=&quot;Times New Roman&quot;&gt;extend msg&lt;/font&gt;" style="rounded=0;whiteSpace=wrap;html=1;" vertex="1" parent="1">
          <mxGeometry x="242.50000000000003" y="4692.5" width="60" height="20" as="geometry" />
        </mxCell>
        <mxCell id="uf0-_T7T-mCnK8aiK6UU-75" value="&lt;font style=&quot;font-size: 9px;&quot; face=&quot;Times New Roman&quot;&gt;Req Ring Buffer&lt;/font&gt;" style="text;html=1;align=center;verticalAlign=middle;whiteSpace=wrap;rounded=0;" vertex="1" parent="1">
          <mxGeometry x="199.72000000000003" y="4622.5" width="90" height="30" as="geometry" />
        </mxCell>
        <mxCell id="uf0-_T7T-mCnK8aiK6UU-76" value="&lt;font style=&quot;font-size: 8px;&quot; face=&quot;Times New Roman&quot;&gt;IPCItem&lt;/font&gt;" style="text;html=1;align=center;verticalAlign=middle;whiteSpace=wrap;rounded=0;" vertex="1" parent="1">
          <mxGeometry x="207.5" y="4670" width="60" height="22.5" as="geometry" />
        </mxCell>
        <mxCell id="uf0-_T7T-mCnK8aiK6UU-77" value="&lt;font face=&quot;Times New Roman&quot;&gt;...&lt;/font&gt;" style="text;html=1;align=center;verticalAlign=middle;whiteSpace=wrap;rounded=0;" vertex="1" parent="1">
          <mxGeometry x="208.05000000000004" y="4712.5" width="60" height="20" as="geometry" />
        </mxCell>
        <mxCell id="uf0-_T7T-mCnK8aiK6UU-78" value="&lt;font style=&quot;font-size: 9px;&quot; face=&quot;Times New Roman&quot;&gt;Resp Ring Buffer&lt;/font&gt;" style="text;html=1;align=center;verticalAlign=middle;whiteSpace=wrap;rounded=0;" vertex="1" parent="1">
          <mxGeometry x="330.27000000000004" y="4622.5" width="90" height="30" as="geometry" />
        </mxCell>
        <mxCell id="uf0-_T7T-mCnK8aiK6UU-79" value="" style="rounded=0;whiteSpace=wrap;html=1;" vertex="1" parent="1">
          <mxGeometry x="313.05" y="4672.5" width="120" height="60" as="geometry" />
        </mxCell>
        <mxCell id="uf0-_T7T-mCnK8aiK6UU-80" value="&lt;font face=&quot;Times New Roman&quot; style=&quot;font-size: 8px;&quot;&gt;reply_co status&lt;/font&gt;" style="rounded=0;whiteSpace=wrap;html=1;" vertex="1" parent="1">
          <mxGeometry x="313.05" y="4652.5" width="59.45" height="20" as="geometry" />
        </mxCell>
        <mxCell id="uf0-_T7T-mCnK8aiK6UU-81" value="&lt;span style=&quot;font-family: &amp;quot;Times New Roman&amp;quot;;&quot;&gt;&lt;font style=&quot;font-size: 8px;&quot;&gt;count&lt;/font&gt;&lt;/span&gt;" style="rounded=0;whiteSpace=wrap;html=1;" vertex="1" parent="1">
          <mxGeometry x="372.5" y="4652.5" width="20.55" height="20" as="geometry" />
        </mxCell>
        <mxCell id="uf0-_T7T-mCnK8aiK6UU-82" value="&lt;span style=&quot;font-family: &amp;quot;Times New Roman&amp;quot;;&quot;&gt;&lt;font style=&quot;font-size: 8px;&quot;&gt;start&lt;/font&gt;&lt;/span&gt;" style="rounded=0;whiteSpace=wrap;html=1;" vertex="1" parent="1">
          <mxGeometry x="393.05" y="4652.5" width="20" height="20" as="geometry" />
        </mxCell>
        <mxCell id="uf0-_T7T-mCnK8aiK6UU-83" value="&lt;font face=&quot;Times New Roman&quot; style=&quot;font-size: 8px;&quot;&gt;end&lt;/font&gt;" style="rounded=0;whiteSpace=wrap;html=1;" vertex="1" parent="1">
          <mxGeometry x="413.05" y="4652.5" width="20" height="20" as="geometry" />
        </mxCell>
        <mxCell id="uf0-_T7T-mCnK8aiK6UU-84" value="&lt;font face=&quot;Times New Roman&quot; style=&quot;font-size: 8px;&quot;&gt;cid&lt;/font&gt;" style="rounded=0;whiteSpace=wrap;html=1;" vertex="1" parent="1">
          <mxGeometry x="313.05" y="4692.5" width="20" height="20" as="geometry" />
        </mxCell>
        <mxCell id="uf0-_T7T-mCnK8aiK6UU-85" value="&lt;font face=&quot;Times New Roman&quot; style=&quot;font-size: 8px;&quot;&gt;msg info&lt;/font&gt;" style="rounded=0;whiteSpace=wrap;html=1;" vertex="1" parent="1">
          <mxGeometry x="333.05" y="4692.5" width="40" height="20" as="geometry" />
        </mxCell>
        <mxCell id="uf0-_T7T-mCnK8aiK6UU-86" value="&lt;font style=&quot;font-size: 8px;&quot; face=&quot;Times New Roman&quot;&gt;extend msg&lt;/font&gt;" style="rounded=0;whiteSpace=wrap;html=1;" vertex="1" parent="1">
          <mxGeometry x="373.05" y="4692.5" width="60" height="20" as="geometry" />
        </mxCell>
        <mxCell id="uf0-_T7T-mCnK8aiK6UU-88" value="&lt;font face=&quot;Times New Roman&quot;&gt;...&lt;/font&gt;" style="text;html=1;align=center;verticalAlign=middle;whiteSpace=wrap;rounded=0;" vertex="1" parent="1">
          <mxGeometry x="338.6" y="4712.5" width="60" height="20" as="geometry" />
        </mxCell>
        <mxCell id="uf0-_T7T-mCnK8aiK6UU-92" value="&lt;font style=&quot;font-size: 8px;&quot; face=&quot;Times New Roman&quot;&gt;IPCItem&lt;/font&gt;" style="text;html=1;align=center;verticalAlign=middle;whiteSpace=wrap;rounded=0;" vertex="1" parent="1">
          <mxGeometry x="343.04999999999995" y="4670" width="60" height="22.5" as="geometry" />
        </mxCell>
      </root>
    </mxGraphModel>
  </diagram>
</mxfile>
